<svg version="1.1" id="Layer_1" xmlns="http://www.w3.org/2000/svg" x="0" y="0" viewBox="0 0 513.8 72" xml:space="preserve"><style>.st0{fill:#59595b}</style><path class="st0" d="M112.8 47.6h12.8c7.1 0 10.6 2.4 10.6 7.1 0 3.2-1.8 5.4-5.4 6.4l6.9 10.3h-4.4l-6.3-9.6h-10.4v9.6h-3.7l-.1-23.8zm12.4 11.3c4.7 0 7-1.4 7-4.2 0-1.5-.5-2.5-1.6-3.2s-2.8-1-5.3-1h-8.8v8.4h8.7zM142 47.6h21.8v2.9h-18v7.2h17.1v2.9h-17.1v7.9h18.8l-.7 2.9H142V47.6zM169.7 47.6h20.7v2.9h-16.9V58h16.1v2.9h-16.1v10.5h-3.8V47.6zM195 47.6h21.8v2.9h-18v7.2h17.1v2.9h-17.1v7.9h18.8l-.7 2.9H195V47.6zM222.3 47.6h12.8c7.1 0 10.6 2.4 10.6 7.1 0 3.2-1.8 5.4-5.4 6.4l6.9 10.3h-4.4l-6.3-9.6h-10.4v9.6h-3.7V47.6h-.1zm12.5 11.3c4.7 0 7-1.4 7-4.2 0-1.5-.5-2.5-1.6-3.2s-2.8-1-5.3-1h-8.8v8.4h8.7zM251.2 47.6h21.7v2.9h-18v7.2H272v2.9h-17.1v7.9h18.8l-.7 2.9h-21.9V47.6h.1zM278.5 47.6h3.7l18.2 19.1V47.6h3.7v23.8h-3.7l-18.2-19.1v19.1h-3.7V47.6zM336 54.8l-3.7.5c-.8-1.9-1.9-3.3-3.4-4.1-1.5-.8-3.5-1.3-6.2-1.3-2.2 0-4.1.4-5.7 1.2-1.6.8-2.8 1.9-3.7 3.3-.9 1.4-1.3 3.1-1.3 5.1s.4 3.7 1.3 5.1 2.1 2.5 3.7 3.3 3.5 1.1 5.8 1.1c2.8 0 5-.4 6.6-1.3s2.6-2.3 3.1-4.2h3.9c-.5 2.7-2 4.8-4.3 6.3-2.3 1.4-5.4 2.2-9.3 2.2-3 0-5.6-.5-7.8-1.5s-3.9-2.5-5.1-4.3c-1.2-1.9-1.8-4.1-1.8-6.6s.6-4.7 1.8-6.6c1.2-1.9 2.9-3.3 5.1-4.4 2.2-1 4.8-1.6 7.7-1.6 7.2 0 11.6 2.6 13.3 7.8zM340.7 47.6h21.8v2.9h-18v7.2h17.1v2.9h-17.1v7.9h18.8l-.7 2.9h-21.9V47.6z"/><g><path class="st0" d="M112.8 1h14.4c3.8 0 6.9.5 9.2 1.6 2.3 1.1 3.9 2.6 4.9 4.5s1.5 4.2 1.5 6.8c0 2.7-.5 5-1.5 7s-2.7 3.5-5 4.6c-2.3 1.1-5.3 1.7-9.1 1.7h-5.9V41h-8.5V1zm14.4 19.2c2.9 0 4.8-.5 5.8-1.6s1.5-2.6 1.5-4.6c0-2.1-.5-3.6-1.6-4.5-1-1-3-1.4-5.8-1.4h-5.9v12.1h6zM146.1 1h15.1c3.8 0 6.8.5 9 1.6 2.3 1 3.9 2.5 4.9 4.3 1 1.8 1.5 3.9 1.5 6.3 0 2.5-.5 4.7-1.6 6.6-1 1.9-2.7 3.4-4.8 4.5l8.3 16.7h-9.2l-7-14.8h-7.8V41h-8.4V1zm14.8 18.5c2.8 0 4.6-.5 5.7-1.5 1-1 1.5-2.5 1.5-4.5 0-1.9-.5-3.3-1.6-4.2-1.1-1-3-1.4-5.9-1.4h-6.1v11.7l6.4-.1zM182.2 9.7c1.6-3.2 3.8-5.6 6.7-7.2S195.2 0 199.2 0c3.9 0 7.3.8 10.2 2.4s5.1 4 6.6 7.1 2.3 6.9 2.3 11.3c0 4.5-.8 8.3-2.4 11.5-1.6 3.2-3.8 5.6-6.7 7.2-2.9 1.7-6.3 2.5-10.3 2.5-3.9 0-7.3-.8-10.2-2.4-2.9-1.6-5.1-4-6.7-7.1-1.6-3.1-2.4-6.9-2.4-11.4s1.1-8.3 2.6-11.4zm16.9-2.1c-3.4 0-5.9 1.2-7.6 3.6S189 16.8 189 21s.8 7.5 2.5 9.8c1.7 2.4 4.2 3.6 7.6 3.6 3.3 0 5.8-1.2 7.5-3.6 1.7-2.4 2.5-5.6 2.5-9.8s-.8-7.5-2.5-9.8c-1.6-2.4-4.1-3.6-7.5-3.6zM232.1 1h26.5v7.2h-17.8v9.9h16.7v7.2h-16.7V41h-8.7V1zM264.1 9.7c1.6-3.2 3.8-5.6 6.7-7.2C273.7.9 277.1 0 281.1 0s7.3.8 10.2 2.4c2.9 1.6 5.1 4 6.6 7.1s2.3 6.9 2.3 11.3c0 4.5-.8 8.3-2.4 11.5s-3.8 5.6-6.7 7.2c-2.8 1.7-6.2 2.5-10.2 2.5-3.9 0-7.3-.8-10.2-2.4-2.9-1.6-5.1-4-6.7-7.1s-2.4-6.9-2.4-11.4.9-8.3 2.5-11.4zM281 7.6c-3.4 0-5.9 1.2-7.6 3.6s-2.5 5.6-2.5 9.8.8 7.5 2.5 9.8c1.7 2.4 4.2 3.6 7.6 3.6 3.3 0 5.8-1.2 7.5-3.6 1.7-2.4 2.5-5.6 2.5-9.8s-.8-7.5-2.5-9.8c-1.7-2.4-4.2-3.6-7.5-3.6zM305.6 9.7c1.6-3.2 3.8-5.6 6.7-7.2C315.2.9 318.6 0 322.6 0s7.3.8 10.2 2.4c2.9 1.6 5.1 4 6.6 7.1s2.3 6.9 2.3 11.3c0 4.5-.8 8.3-2.4 11.5s-3.8 5.6-6.7 7.2c-2.9 1.7-6.3 2.5-10.3 2.5-3.9 0-7.3-.8-10.2-2.4-2.9-1.6-5.1-4-6.7-7.1s-2.4-6.9-2.4-11.4 1-8.3 2.6-11.4zm16.9-2.1c-3.4 0-5.9 1.2-7.6 3.6s-2.5 5.6-2.5 9.8.8 7.5 2.5 9.8c1.7 2.4 4.2 3.6 7.6 3.6 3.3 0 5.8-1.2 7.5-3.6 1.7-2.4 2.5-5.6 2.5-9.8s-.8-7.5-2.5-9.8c-1.6-2.4-4.2-3.6-7.5-3.6zM355 8.7h-12.2V1h33.3v7.7h-12.2V41h-8.8V8.7h-.1zM379.7 1h15.9c3.4 0 6.2.4 8.2 1.3 2.1.8 3.5 2 4.5 3.6.9 1.5 1.4 3.3 1.4 5.4 0 1.9-.4 3.5-1.3 5-.8 1.4-2.2 2.6-4.1 3.6 2.4 1 4 2.3 5 3.9s1.5 3.5 1.5 5.6c0 3.5-1.2 6.3-3.6 8.5-2.3 2-6.1 3.1-11.3 3.1h-16.2V1zM395 17.1c2.2 0 3.8-.4 4.8-1.2s1.5-2 1.5-3.6-.5-2.8-1.5-3.6c-1-.7-2.8-1.1-5.2-1.1H388v9.5h7zm.2 17.3c2.7 0 4.6-.5 5.6-1.4 1-1 1.5-2.3 1.5-4.1 0-1.9-.5-3.3-1.6-4.2s-2.9-1.4-5.4-1.4h-7.4v11h7.3v.1zM425.8 1h10.4l14.2 40h-9.1l-3-8.8h-15l-3 8.8h-8.8l14.3-40zm10.3 24l-5.4-16.3-5.3 16.3h10.7zM454.1 1h8.8v32.3h18.8l-1 7.7H454V1h.1zM486.2 1h8.8v32.3h18.8l-1 7.7h-26.7V1h.1z"/></g><g><path d="M102.3 0v72s-14.9-10-37-10C47.5 62 10.1 65 0 16.1c0 0 6.8 5.9 20.7 5.9 22.6 0 29.9-22 81.6-22z" fill="#fff"/><path d="M85.6 33l.5-2.4c-.9-.4-1.9-.7-2.8-1.1l-.5 2.5c-.7-.2-1.4-.5-2.1-.7l.5-2.4c-.9-.3-1.9-.6-2.9-.9l-.5 2.5c-.7-.2-1.4-.4-2.2-.6l.5-2.5c-.9-.3-1.9-.5-2.9-.7l-.5 2.5c-.7-.2-1.4-.3-2.2-.5l.5-2.5-1.5-.3-1.5-.3-.5 2.5c-.7-.1-1.5-.3-2.2-.4l.5-2.5c-1-.1-2-.3-2.9-.4l-.5 2.5c-.7-.1-1.5-.2-2.2-.3l.5-2.5c-1-.1-2-.2-3-.2l-.5 2.4c-.8 0-1.5-.1-2.2-.1l.5-2.4h-3l-.5 2.4h-2.3l.4-2.3c-.6 0-1.1 0-1.7.1-.7 0-.5-.6-.5-.6l.8-4.2s.2-.4.5-.4H51l.4-2.3h2.3l-.5 2.4c1 0 2 0 3 .1l.5-2.4c.7 0 1.5.1 2.2.1l-.5 2.4 3 .3.5-2.4c.7.1 1.5.1 2.2.2l-.5 2.5c1 .1 2 .3 2.9.4L67 18c.7.1 1.5.3 2.2.4l-.5 2.5 1.5.3 1.5.3.5-2.5c.7.2 1.5.3 2.2.5l-.5 2.5c1 .2 1.9.5 2.9.7l.5-2.5c.7.2 1.4.4 2.2.6l-.3 2.2c1 .3 1.9.6 2.9.9l.5-2.4c.7.2 1.4.5 2.1.7l-.5 2.4c1 .3 1.9.7 2.8 1l.5-2.4 2.1.9-.4 2.3c.5.2 1.1.5 1.6.7s.4.8.4.8l-.8 4.1s-.1.4-.6.3c-.5-.2-1-.5-1.6-.7l-.4 2.3c-.7-.3-1.4-.6-2.2-.9zM72.4 11.3c12.9 2.5 22.8 8.8 29.9 15.8V0C75.7 0 60.9 5.8 49.7 11.5c6.8-1.5 14.5-1.8 22.7-.2zM21.7 38.4c7.6 7.4 23 17.9 41.4 21.5 14.5 2.8 28.9.8 39.2-2.2V55c-9.8 2.9-24.1 5.1-38.7 2.3-21.3-4.1-38.3-17.8-43.1-24-.5-.6-.7-1.4-.5-2.6.2-1.4.7-2.7 1-3 1.6-2 3.9-4.2 6.8-6.4-2.2.5-4.5.7-6.9.7C6.9 22 .2 16.1.2 16.1 7.4 51.3 28.9 59.6 47 61.5 34.6 55 25.6 44.8 21.7 38.4zm65.9 27c9.2 2.9 14.6 6.6 14.6 6.6V59.7c-4 2.1-9 4.2-14.6 5.7z" fill="#008345"/></g></svg>